<?xml version="1.0" encoding="UTF-8" standalone="no"?>
<svg
   xmlns:dc="http://purl.org/dc/elements/1.1/"
   xmlns:cc="http://creativecommons.org/ns#"
   xmlns:rdf="http://www.w3.org/1999/02/22-rdf-syntax-ns#"
   xmlns:svg="http://www.w3.org/2000/svg"
   xmlns="http://www.w3.org/2000/svg"
   xmlns:sodipodi="http://sodipodi.sourceforge.net/DTD/sodipodi-0.dtd"
   xmlns:inkscape="http://www.inkscape.org/namespaces/inkscape"
   width="50px"
   height="50px"
   viewBox="0 0 50 50"
   version="1.1"
   id="svg19"
   sodipodi:docname="arrow_up_fill.svg"
   inkscape:version="0.92.1 r15371">
  <metadata
     id="metadata23">
    <rdf:RDF>
      <cc:Work
         rdf:about="">
        <dc:format>image/svg+xml</dc:format>
        <dc:type
           rdf:resource="http://purl.org/dc/dcmitype/StillImage" />
        <dc:title>arrow_up_fill</dc:title>
      </cc:Work>
    </rdf:RDF>
  </metadata>
  <sodipodi:namedview
     pagecolor="#ffffff"
     bordercolor="#666666"
     borderopacity="1"
     objecttolerance="10"
     gridtolerance="10"
     guidetolerance="10"
     inkscape:pageopacity="0"
     inkscape:pageshadow="2"
     inkscape:window-width="1600"
     inkscape:window-height="877"
     id="namedview21"
     showgrid="false"
     inkscape:zoom="11.78"
     inkscape:cx="28.538669"
     inkscape:cy="25"
     inkscape:window-x="-8"
     inkscape:window-y="-8"
     inkscape:window-maximized="1"
     inkscape:current-layer="svg19" />
  <!-- Generator: Sketch 40.1 (33804) - http://www.bohemiancoding.com/sketch -->
  <title
     id="title10">arrow_up_fill</title>
  <desc
     id="desc12">Created with Sketch.</desc>
  <defs
     id="defs14" />
  <g
     inkscape:groupmode="layer"
     id="layer2"
     inkscape:label="Layer 2">
    <circle
       style="opacity:1;fill:#ff3b30;fill-opacity:1;stroke:none;stroke-width:20;stroke-miterlimit:4;stroke-dasharray:none;stroke-opacity:1;paint-order:markers stroke fill"
       id="path19"
       cx="25"
       cy="25"
       r="21.986418" />
  </g>
  <g
     id="Page-1"
     transform="rotate(45,25,25)"
     style="fill:none;fill-rule:evenodd;stroke:none;stroke-width:1">
    <g
       id="arrow_up_fill"
       style="fill:#ffffff">
      <path
         d="M 25,50 C 38.807119,50 50,38.807119 50,25 50,11.192881 38.807119,0 25,0 11.192881,0 0,11.192881 0,25 0,38.807119 11.192881,50 25,50 Z m 1.950928,-31.218766 v 18.170708 c 0,1.105047 -0.88773,2.000864 -2,2.000864 -1.10457,0 -2,-0.901627 -2,-2.000864 V 18.781234 l -6.539007,6.539006 c -0.77913,0.779131 -2.03846,0.783021 -2.824954,-0.0035 -0.781049,-0.781048 -0.783034,-2.045393 -0.0035,-2.824954 l 9.90644,-9.90644 c 0.411976,-0.411975 0.95821,-0.607201 1.49781,-0.583439 v 0 c 0.515244,-0.0038 1.031281,0.190543 1.424177,0.583439 l 9.90644,9.90644 c 0.779131,0.779131 0.783022,2.038461 -0.0035,2.824954 -0.781049,0.781049 -2.045393,0.783035 -2.824955,0.0035 l -6.539006,-6.539006 z"
         id="Combined-Shape"
         inkscape:connector-curvature="0" />
    </g>
  </g>
  <g
     inkscape:groupmode="layer"
     id="layer1"
     inkscape:label="Layer 1" />
</svg>
